<svg width="67" height="25" viewBox="0 0 67 25" fill="none" xmlns="http://www.w3.org/2000/svg">
<path d="M1 12.6857H11.8218C11.9335 12.6857 12.0421 12.6483 12.1301 12.5794L15.0102 10.3239C15.2488 10.137 15.5976 10.2038 15.7503 10.4656L20.3594 18.3675C20.5809 18.7474 21.1496 18.6768 21.2716 18.2544L26.0497 1.70985C26.1899 1.22451 26.8793 1.22952 27.0124 1.71686L32.8526 23.1005C32.9859 23.5887 33.6769 23.5926 33.8157 23.106L38.1443 7.92931C38.2753 7.4703 38.9135 7.43821 39.0898 7.88178L42.2158 15.7471C42.3428 16.0667 42.747 16.1656 43.0072 15.9409L46.3992 13.0116C46.6078 12.8314 46.9227 12.854 47.1035 13.062L49.2631 15.5478C49.4505 15.7634 49.7801 15.7786 49.9864 15.5809L52.8637 12.8247C52.9568 12.7355 53.0807 12.6857 53.2096 12.6857H66" stroke="#00BFFF" stroke-width="2" stroke-linecap="round"/>
</svg>
